<svg id="icon" height="512" viewBox="0 0 128 128" width="512" xmlns="http://www.w3.org/2000/svg"><path d="m59.639 122.27-45.736-54.66 45.21-51.432 4.824 3.8-41.81 46.871 42.098 51.002z" fill="#c1cdd3"/><path d="m59.639 123.271h-.054a1 1 0 0 1 -.713-.357l-45.735-54.663a1 1 0 0 1 .016-1.3l45.21-51.432a1 1 0 0 1 1.37-.125l4.823 3.8a1 1 0 0 1 .127 1.451l-41.239 46.23 41.556 50.339a1 1 0 0 1 -.077 1.357l-4.587 4.42a1 1 0 0 1 -.697.28zm-44.418-55.645 44.5 53.18 3.148-3.033-41.514-50.287a1 1 0 0 1 .025-1.3l41.1-46.078-3.242-2.558z" fill="#2f3a5a"/><path d="m74.714 9.992-11.087-8.992-13.127 16.185 11.087 8.992a30.212 30.212 0 0 0 8.606 32.408l38.007-46.863a30.212 30.212 0 0 0 -33.486-1.73z" fill="#8ae0a1"/><path d="m56.637 9.619 11.09 8.994a30.2 30.2 0 0 0 8.6 32.409l-6.127 7.561a30.191 30.191 0 0 1 -8.611-32.4l-11.089-8.994z" fill="#6fc682"/><path d="m70.193 59.585a1 1 0 0 1 -.661-.25 31.092 31.092 0 0 1 -9.109-32.815l-10.553-8.558a1 1 0 0 1 -.146-1.407l13.127-16.185a1 1 0 0 1 .673-.365 1.009 1.009 0 0 1 .733.218l10.552 8.558a31.093 31.093 0 0 1 33.991 2.139 1 1 0 0 1 .179 1.432l-38.009 46.863a1 1 0 0 1 -.692.367c-.029.002-.057.003-.085.003zm-18.287-42.547 10.312 8.362a1 1 0 0 1 .316 1.1 29.1 29.1 0 0 0 7.55 30.631l36.672-45.217a29.1 29.1 0 0 0 -31.53-1.063 1 1 0 0 1 -1.142-.083l-10.311-8.361z" fill="#2f3a5a"/><circle cx="21.31" cy="69.27" fill="#c1cdd3" r="11.26"/><path d="m21.311 81.53a12.26 12.26 0 1 1 12.259-12.26 12.274 12.274 0 0 1 -12.259 12.26zm0-22.519a10.26 10.26 0 1 0 10.259 10.259 10.271 10.271 0 0 0 -10.259-10.259z" fill="#2f3a5a"/><circle cx="21.31" cy="69.27" fill="#d9e2e9" r="4.722"/><path d="m21.311 74.992a5.722 5.722 0 1 1 5.722-5.722 5.729 5.729 0 0 1 -5.722 5.722zm0-9.444a3.722 3.722 0 1 0 3.722 3.722 3.727 3.727 0 0 0 -3.722-3.722z" fill="#2f3a5a"/><path d="m83.587 115.315h-48.237a4.517 4.517 0 0 0 -4.517 4.517v7.168h57.267v-7.168a4.517 4.517 0 0 0 -4.513-4.517z" fill="#8ae0a1"/><path d="m88.1 128h-57.267a1 1 0 0 1 -1-1v-7.168a5.523 5.523 0 0 1 5.517-5.517h48.237a5.523 5.523 0 0 1 5.517 5.517v7.168a1 1 0 0 1 -1.004 1zm-56.271-2h55.271v-6.168a3.52 3.52 0 0 0 -3.517-3.517h-48.233a3.52 3.52 0 0 0 -3.517 3.517z" fill="#2f3a5a"/><path d="m103.07 42.199 5.943 4.953" fill="#d9e2e9"/><path d="m109.012 48.151a1 1 0 0 1 -.64-.232l-5.942-4.952a1 1 0 1 1 1.281-1.536l5.942 4.952a1 1 0 0 1 -.642 1.768z" fill="#2f3a5a"/><path d="m108.504 34.101 7.708 2.019" fill="#d9e2e9"/><path d="m116.213 37.12a.991.991 0 0 1 -.254-.033l-7.708-2.019a1 1 0 1 1 .506-1.935l7.708 2.019a1 1 0 0 1 -.252 1.968z" fill="#2f3a5a"/><path d="m96.874 49.501 3.925 6.827" fill="#d9e2e9"/><path d="m100.8 57.328a1 1 0 0 1 -.868-.5l-3.925-6.828a1 1 0 0 1 1.734-1l3.925 6.827a1 1 0 0 1 -.866 1.5z" fill="#2f3a5a"/><path d="m110.385 25.597 7.564-2.043" fill="#d9e2e9"/><path d="m110.384 26.6a1 1 0 0 1 -.26-1.966l7.564-2.043a1 1 0 1 1 .521 1.931l-7.564 2.043a1 1 0 0 1 -.261.035z" fill="#2f3a5a"/><path d="m88.6 55.691.901 7.831" fill="#d9e2e9"/><path d="m89.5 64.522a1 1 0 0 1 -.992-.886l-.9-7.831a1 1 0 1 1 1.986-.229l.9 7.831a1 1 0 0 1 -.879 1.108 1.025 1.025 0 0 1 -.115.007z" fill="#2f3a5a"/></svg>